<svg width="67" height="20" fill="none" xmlns="http://www.w3.org/2000/svg"><path d="M17.655 0l-6.557 19.603h-4.17L0 0h2.951l6.095 17.453L14.77 0h2.885zm3.835 2.98L18.805 3V0h2.685v2.98zm-.005 16.623h-2.68V5.015h2.68v14.588zm4.278-10.089c.19-.75.452-1.427.788-2.032a6.148 6.148 0 011.204-1.541c.463-.423.984-.75 1.562-.98a4.994 4.994 0 011.86-.343c.6 0 1.168.086 1.706.258a5.405 5.405 0 011.49.74c.458.323.87.713 1.237 1.172.37.454.684.966.94 1.535a8.81 8.81 0 01.588 1.859c.142.67.212 1.378.212 2.124 0 .745-.07 1.453-.212 2.123a8.953 8.953 0 01-.589 1.866 7.024 7.024 0 01-.94 1.542A6.049 6.049 0 0134.373 19c-.454.322-.95.569-1.489.741a5.575 5.575 0 01-1.707.258 4.995 4.995 0 01-1.86-.344 5.07 5.07 0 01-1.561-.98 6.265 6.265 0 01-1.204-1.547 8.425 8.425 0 01-.788-2.032v4.506h-2.68V0h2.68v9.514zm0 2.792c0 .833.102 1.58.305 2.242.207.658.505 1.216.893 1.674.388.459.86.812 1.416 1.059.556.242 1.185.364 1.886.364.715 0 1.345-.115 1.893-.344a3.576 3.576 0 001.376-1.026c.375-.454.657-1.012.847-1.674.194-.666.291-1.43.291-2.295s-.097-1.628-.291-2.29c-.19-.666-.47-1.224-.84-1.673a3.52 3.52 0 00-1.383-1.02c-.547-.233-1.178-.35-1.893-.35-.701 0-1.33.121-1.886.364a3.844 3.844 0 00-1.416 1.052c-.388.459-.686 1.019-.893 1.68-.203.657-.305 1.403-.305 2.237zm26.375 2.461a7.26 7.26 0 01-.886 2.196 6.106 6.106 0 01-1.463 1.648 6.284 6.284 0 01-1.965 1.032A7.661 7.661 0 0145.44 20a7.833 7.833 0 01-2.018-.251 6.968 6.968 0 01-1.747-.722 6.656 6.656 0 01-1.429-1.15 7.03 7.03 0 01-1.072-1.536 8.092 8.092 0 01-.668-1.879 9.86 9.86 0 01-.232-2.176c0-.768.077-1.489.232-2.164a8.182 8.182 0 01.661-1.865 6.835 6.835 0 011.06-1.529 6.26 6.26 0 011.409-1.144 6.599 6.599 0 011.727-.715 7.705 7.705 0 011.998-.251c1.046 0 1.99.18 2.832.542a6.03 6.03 0 012.158 1.529c.595.661 1.054 1.462 1.376 2.401.322.94.483 1.992.483 3.156 0 .168-.004.333-.013.496l-.033.543H41.008c.08.666.238 1.266.476 1.8.243.529.556.979.94 1.349.388.37.84.655 1.357.853a4.91 4.91 0 001.727.291c.975 0 1.789-.233 2.441-.7.653-.473 1.159-1.176 1.516-2.111h2.673zm-2.7-3.798a6.072 6.072 0 00-.463-1.68c-.22-.49-.503-.9-.847-1.23a3.42 3.42 0 00-1.21-.762 4.365 4.365 0 00-1.543-.258c-.582 0-1.116.09-1.601.271a3.802 3.802 0 00-1.284.775c-.366.335-.67.747-.913 1.237a5.768 5.768 0 00-.516 1.647h8.377zm9.948-6.351c.992 0 1.874.112 2.646.337.777.225 1.43.547 1.96.966.533.415.937.92 1.21 1.515.278.591.417 1.255.417 1.992h-2.614c0-.375-.08-.715-.238-1.02a2.166 2.166 0 00-.701-.787 3.39 3.39 0 00-1.132-.509 6.074 6.074 0 00-1.548-.179 6.69 6.69 0 00-1.45.146 3.965 3.965 0 00-1.118.417c-.313.176-.556.39-.728.641a1.413 1.413 0 00-.258.827c0 .23.049.433.146.61.097.171.23.321.397.449s.364.238.589.33c.225.09.465.166.72.232.261.067.53.124.808.172l.82.133.974.152c.405.062.831.134 1.277.218.45.08.893.188 1.33.324.437.133.851.303 1.244.51.392.203.739.459 1.039.767.3.31.538.68.714 1.112.177.428.265.937.265 1.528 0 .719-.141 1.359-.424 1.919a3.81 3.81 0 01-1.25 1.409c-.547.384-1.226.675-2.038.873-.812.199-1.75.298-2.813.298-1.107 0-2.077-.108-2.911-.324-.834-.216-1.529-.534-2.085-.953a4.036 4.036 0 01-1.257-1.541c-.278-.613-.28-1.621-.28-2.415h2.614c0 .419-.055 1.096.108 1.422.163.322.412.596.748.82.335.221.756.389 1.264.503.507.115 1.105.172 1.793.172a8.92 8.92 0 001.66-.139 4.432 4.432 0 001.232-.403 2.1 2.1 0 00.767-.668c.177-.265.265-.567.265-.907a1.45 1.45 0 00-.159-.694 1.628 1.628 0 00-.424-.53 2.48 2.48 0 00-.635-.383 5.685 5.685 0 00-.8-.285 9.844 9.844 0 00-.894-.205 30.39 30.39 0 00-.94-.172l-.972-.165a50.19 50.19 0 01-1.178-.212 13.72 13.72 0 01-1.237-.311 7.763 7.763 0 01-1.172-.476 4.144 4.144 0 01-.986-.715 3.273 3.273 0 01-.681-1.012c-.168-.393-.252-.854-.252-1.383 0-.67.141-1.277.424-1.82a4.034 4.034 0 011.224-1.389c.534-.383 1.18-.679 1.939-.886.763-.208 1.623-.311 2.58-.311z" fill="#fff"/></svg>