<svg viewBox="0 0 24 24"  xmlns="http://www.w3.org/2000/svg" style="display:none">

	<symbol viewBox="0 0 81 81" id="avatar">
		<path d="M41.0344 43.0815C40.7387 43.0443 40.4394 43.0443 40.1437 43.0815C36.9964 42.9755 34.0135 41.6503 31.8251 39.3858C29.6368 37.1213 28.4144 34.0948 28.4162 30.9457C28.4162 24.2284 33.8346 18.7728 40.5891 18.7728C43.7786 18.7673 46.8427 20.0154 49.1205 22.2481C51.3984 24.4807 52.7077 27.5191 52.7661 30.7081C52.8246 33.8972 51.6274 36.9815 49.4329 39.2961C47.2383 41.6107 44.222 42.9702 41.0344 43.0815ZM65.6028 67.5756C58.7825 73.8442 49.8524 77.3155 40.5891 77.2991C30.9398 77.2991 22.1813 73.6249 15.5753 67.5756C15.9464 64.0871 18.1732 60.6727 22.1442 58.0006C32.313 51.2462 48.9393 51.2462 59.0339 58.0006C63.0049 60.6727 65.2317 64.0871 65.6028 67.5756Z" fill="none" stroke="currentColor" stroke-width="6.01822" stroke-linecap="round" stroke-linejoin="round"/>
		<path d="M40.587 77.2985C61.0841 77.2985 77.6994 60.6833 77.6994 40.1861C77.6994 19.6889 61.0841 3.07373 40.587 3.07373C20.0898 3.07373 3.47461 19.6889 3.47461 40.1861C3.47461 60.6833 20.0898 77.2985 40.587 77.2985Z" fill="none" stroke="currentColor" stroke-width="6.01822" stroke-linecap="round" stroke-linejoin="round"/>	
	</symbol>

	<symbol viewBox="0 0 20 20" id="paperclimp">
		<path d="M17.8666 9.2081L10.2082 16.8664C9.27005 17.8046 7.99757 18.3317 6.67075 18.3317C5.34393 18.3317 4.07145 17.8046 3.13325 16.8664C2.19505 15.9282 1.66797 14.6558 1.66797 13.3289C1.66797 12.0021 2.19505 10.7296 3.13325 9.79144L10.7916 2.1331C11.4171 1.50763 12.2654 1.15625 13.1499 1.15625C14.0345 1.15625 14.8828 1.50763 15.5082 2.1331C16.1337 2.75857 16.4851 3.60689 16.4851 4.49144C16.4851 5.37598 16.1337 6.2243 15.5082 6.84977L7.84158 14.5081C7.52885 14.8208 7.10469 14.9965 6.66242 14.9965C6.22014 14.9965 5.79598 14.8208 5.48325 14.5081C5.17051 14.1954 4.99482 13.7712 4.99482 13.3289C4.99482 12.8867 5.17051 12.4625 5.48325 12.1498L12.5582 5.0831" stroke="currentColor" stroke-width="1.4" stroke-linecap="round" stroke-linejoin="round"/>	
	</symbol>

	<symbol viewBox="0 0 26 24" id="instagram">
		<path d="M13 2.98795C15.9157 2.98795 16.3133 2.98795 17.506 2.98795C18.5663 2.98795 19.0964 3.25301 19.494 3.38554C20.0241 3.6506 20.4217 3.78313 20.8193 4.18072C21.2169 4.57831 21.4819 4.9759 21.6145 5.50603C21.747 5.90362 21.8795 6.43374 22.012 7.49398C22.012 8.68675 22.012 8.95181 22.012 12C22.012 15.0482 22.012 15.3133 22.012 16.506C22.012 17.5663 21.747 18.0964 21.6145 18.494C21.3494 19.0241 21.2169 19.4217 20.8193 19.8193C20.4217 20.2169 20.0241 20.4819 19.494 20.6145C19.0964 20.747 18.5663 20.8795 17.506 21.012C16.3133 21.012 16.0482 21.012 13 21.012C9.95181 21.012 9.68675 21.012 8.49398 21.012C7.43374 21.012 6.90362 20.747 6.50603 20.6145C5.9759 20.3494 5.57831 20.2169 5.18072 19.8193C4.78313 19.4217 4.51807 19.0241 4.38554 18.494C4.25301 18.0964 4.12048 17.5663 3.98795 16.506C3.98795 15.3133 3.98795 15.0482 3.98795 12C3.98795 8.95181 3.98795 8.68675 3.98795 7.49398C3.98795 6.43374 4.25301 5.90362 4.38554 5.50603C4.6506 4.9759 4.78313 4.57831 5.18072 4.18072C5.57831 3.78313 5.9759 3.51807 6.50603 3.38554C6.90362 3.25301 7.43374 3.12048 8.49398 2.98795C9.68675 2.98795 10.0843 2.98795 13 2.98795ZM13 1C9.95181 1 9.68675 1 8.49398 1C7.30121 1 6.50603 1.26506 5.84337 1.53012C5.18072 1.79518 4.51807 2.19277 3.85542 2.85542C3.19277 3.51807 2.92771 4.04819 2.53012 4.84337C2.26506 5.50603 2.13253 6.30121 2 7.49398C2 8.68675 2 9.08434 2 12C2 15.0482 2 15.3133 2 16.506C2 17.6988 2.26506 18.494 2.53012 19.1566C2.79518 19.8193 3.19277 20.4819 3.85542 21.1446C4.51807 21.8072 5.04819 22.0723 5.84337 22.4699C6.50603 22.7349 7.30121 22.8675 8.49398 23C9.68675 23 10.0843 23 13 23C15.9157 23 16.3133 23 17.506 23C18.6988 23 19.494 22.7349 20.1566 22.4699C20.8193 22.2048 21.4819 21.8072 22.1446 21.1446C22.8072 20.4819 23.0723 19.9518 23.4699 19.1566C23.7349 18.494 23.8675 17.6988 24 16.506C24 15.3133 24 14.9157 24 12C24 9.08434 24 8.68675 24 7.49398C24 6.30121 23.7349 5.50603 23.4699 4.84337C23.2048 4.18072 22.8072 3.51807 22.1446 2.85542C21.4819 2.19277 20.9518 1.92771 20.1566 1.53012C19.494 1.26506 18.6988 1.13253 17.506 1C16.3133 1 16.0482 1 13 1Z" fill="currentColor"/>
		<path d="M13 6.30121C9.81928 6.30121 7.30121 8.81928 7.30121 12C7.30121 15.1807 9.81928 17.6988 13 17.6988C16.1807 17.6988 18.6988 15.1807 18.6988 12C18.6988 8.81928 16.1807 6.30121 13 6.30121ZM13 15.7108C11.012 15.7108 9.28916 14.1205 9.28916 12C9.28916 10.012 10.8795 8.28916 13 8.28916C14.988 8.28916 16.7108 9.87952 16.7108 12C16.7108 13.988 14.988 15.7108 13 15.7108Z" fill="currentColor"/>
		<path d="M18.8313 7.49398C19.5633 7.49398 20.1566 6.90062 20.1566 6.16868C20.1566 5.43673 19.5633 4.84337 18.8313 4.84337C18.0994 4.84337 17.506 5.43673 17.506 6.16868C17.506 6.90062 18.0994 7.49398 18.8313 7.49398Z" fill="currentColor"/>	
	</symbol>

	<symbol viewBox="0 0 26 24" id="telegram">
		<path d="M23.4498 3.31235L20.1438 20.5714C20.1438 20.5714 19.6813 21.768 18.4106 21.1941L10.7828 15.1377L10.7475 15.1199C11.7778 14.1618 19.7674 6.72283 20.1166 6.38564C20.6572 5.8634 20.3216 5.5525 19.694 5.947L7.89228 13.7082L3.33921 12.1217C3.33921 12.1217 2.62269 11.8578 2.55376 11.2839C2.48392 10.7091 3.36279 10.3982 3.36279 10.3982L21.9243 2.85774C21.9243 2.85774 23.4498 2.16363 23.4498 3.31235Z" fill="currentColor"/>	
	</symbol>

	<symbol viewBox="0 0 28 24" id="behance">
		<path d="M12.21 10.789C12.6313 10.1571 12.8419 9.41985 12.8419 8.57733C12.8419 6.36571 10.9463 4.68066 8.83995 4.68066H2.73166C2.41571 4.68066 2.20508 4.89129 2.20508 5.20724V18.5823C2.20508 18.8982 2.41571 19.1089 2.73166 19.1089H9.47184C11.9994 19.1089 14.1057 17.1079 14.1057 14.5803C14.1057 13.0006 13.3685 11.6315 12.21 10.789ZM4.83796 7.41886H8.83995C9.57716 7.41886 10.1037 8.05076 10.1037 8.68265C10.1037 9.41986 9.47184 9.94643 8.83995 9.94643H4.83796V7.41886ZM9.57715 16.476H4.83796V12.6846H9.57715C10.6303 12.6846 11.4728 13.5271 11.4728 14.5803C11.4728 15.6335 10.6303 16.476 9.57715 16.476Z" fill="currentColor"/>
		<path d="M25.7957 13.6325C25.7957 10.473 23.3735 7.94545 20.3193 7.94545C17.2652 7.94545 14.8429 10.473 14.8429 13.6325C14.8429 16.7919 17.2652 19.3195 20.3193 19.3195C22.1097 19.3195 23.7947 18.3717 24.8479 16.7919C24.9532 16.5813 25.0585 16.3707 25.1638 16.16C25.2691 16.0547 25.1638 15.8441 24.9532 15.8441H22.3203C22.215 15.8441 22.215 15.8441 22.1097 15.9494C21.5831 16.476 20.9512 16.6866 20.3193 16.6866C18.9502 16.6866 17.8971 15.7388 17.5811 14.3697H25.2691C25.5851 14.3697 25.7957 14.1591 25.7957 13.8431V13.6325ZM20.3193 10.6836C21.2672 10.6836 22.1097 11.2102 22.6363 12.0527H18.0024C18.4236 11.2102 19.3715 10.6836 20.3193 10.6836Z" fill="currentColor"/>
		<path d="M22.531 7.31356H17.6864C17.4758 7.31356 17.2652 7.10293 17.2652 6.8923V5.73383C17.2652 5.5232 17.4758 5.31257 17.6864 5.31257H22.531C22.7416 5.31257 22.9522 5.5232 22.9522 5.73383V6.99761C22.9522 7.10293 22.8469 7.31356 22.531 7.31356Z" fill="currentColor"/>	
	</symbol>

	<symbol viewBox="0 0 26 24" id="dribbble">
		<path d="M13 1C6.928 1 2 5.928 2 12C2 18.072 6.928 23 13 23C19.05 23 24 18.072 24 12C24 5.928 19.05 1 13 1ZM20.26 6.06C21.58 7.666 22.35 9.69 22.394 11.912C22.086 11.846 18.984 11.23 15.86 11.604C15.794 11.45 15.728 11.274 15.662 11.12C15.464 10.658 15.266 10.196 15.046 9.756C18.478 8.37 20.062 6.324 20.26 6.06ZM13 2.628C15.376 2.628 17.576 3.53 19.226 4.982C19.05 5.224 17.642 7.116 14.298 8.37C12.758 5.532 11.042 3.222 10.8 2.87C11.504 2.716 12.23 2.628 13 2.628ZM8.996 3.508C9.238 3.838 10.91 6.17 12.472 8.942C8.072 10.108 4.2 10.086 3.782 10.086C4.42 7.16 6.378 4.74 8.996 3.508ZM3.606 12.022C3.606 11.934 3.606 11.824 3.606 11.736C4.002 11.758 8.578 11.802 13.264 10.394C13.528 10.922 13.792 11.45 14.034 12C13.924 12.044 13.792 12.066 13.66 12.11C8.82 13.672 6.246 17.94 6.026 18.292C4.508 16.62 3.606 14.42 3.606 12.022ZM13 21.394C10.822 21.394 8.82 20.646 7.236 19.414C7.412 19.062 9.304 15.388 14.606 13.54C14.628 13.518 14.65 13.518 14.672 13.518C15.992 16.95 16.542 19.81 16.674 20.646C15.552 21.13 14.298 21.394 13 21.394ZM18.236 19.788C18.148 19.216 17.642 16.466 16.41 13.1C19.358 12.638 21.932 13.408 22.262 13.496C21.844 16.114 20.348 18.38 18.236 19.788Z" fill="currentColor"/>	
	</symbol>

	<symbol viewBox="0 0 60 60" id="play-icon">
		<path d="M48.8184 28.268C50.1517 29.0378 50.1517 30.9623 48.8184 31.7321L22.0911 47.1631C20.7578 47.9329 19.0911 46.9707 19.0911 45.4311L19.0911 14.5691C19.0911 13.0295 20.7578 12.0672 22.0911 12.837L48.8184 28.268Z" fill="currentColor"/>
	</symbol>

	<symbol viewBox="0 0 16 16" id="sound-off">
		<path d="M12.0003 9.33333L13.334 8M14.667 6.66667L13.334 8M13.334 8L12.0003 6.66667M13.334 8L14.667 9.33333" fill="none" stroke="currentColor" stroke-width="1.2" stroke-linecap="round" stroke-linejoin="round"/>
		<path d="M1.33301 8.57143V7.42857C1.33301 6.324 2.22844 5.42857 3.33301 5.42857H4.49967C4.69537 5.42857 4.88676 5.37115 5.05013 5.26343L8.44922 3.02228C9.11409 2.5839 9.99967 3.06075 9.99967 3.85714V12.1429C9.99967 12.9392 9.1141 13.4161 8.44922 12.9777L5.05013 10.7366C4.88676 10.6288 4.69537 10.5714 4.49967 10.5714H3.33301C2.22844 10.5714 1.33301 9.676 1.33301 8.57143Z" fill="none" stroke="currentColor" stroke-width="1.2"/>	
	</symbol>

	<symbol viewBox="0 0 77 61" id="reload">
		<path d="M71.1855 29.875V21.3927C71.1855 15.8699 66.7084 11.3927 61.1855 11.3927L3.9982 11.3927" fill="none" stroke="currentColor" stroke-width="5"/>
		<path d="M12.8145 20.2095C12.4319 19.8269 6.7772 14.1721 3.99769 11.3926L12.8145 2.57586" fill="none" stroke="currentColor" stroke-width="5"/>
		<path d="M5.81055 30.8184L5.81055 39.3006C5.81055 44.8235 10.2877 49.3006 15.8105 49.3006H72.9979" fill="none" stroke="currentColor" stroke-width="5"/>
		<path d="M64.1816 40.4839C64.5642 40.8665 70.2189 46.5212 72.9984 49.3007L64.1816 58.1175" fill="none" stroke="currentColor" stroke-width="5"/>	
	</symbol>

	<symbol viewBox="0 0 42 42" id="reconstruction">
		<path d="M19.25 38.4999H28C34.125 38.4999 36.75 34.9999 36.75 29.7499V12.2499C36.75 6.99988 34.125 3.49988 28 3.49988H14C7.875 3.49988 5.25 6.99988 5.25 12.2499V24.4999" fill="none" stroke="currentColor" stroke-width="3" stroke-miterlimit="10" stroke-linecap="round" stroke-linejoin="round"/>
		<path d="M25.376 7.875V11.375C25.376 13.3 26.951 14.875 28.876 14.875H32.376" fill="none" stroke="currentColor" stroke-width="3" stroke-miterlimit="10" stroke-linecap="round" stroke-linejoin="round"/>
		<path d="M6.99902 29.7499L3.49902 33.2499L6.99902 36.7499" fill="none" stroke="currentColor" stroke-width="3" stroke-miterlimit="10" stroke-linecap="round" stroke-linejoin="round"/>
		<path d="M12.251 29.7499L15.751 33.2499L12.251 36.7499" fill="none" stroke="currentColor" stroke-width="3" stroke-miterlimit="10" stroke-linecap="round" stroke-linejoin="round"/>	
	</symbol>

	<symbol viewBox="0 0 94 94" id="axes">
		<path d="M82.25 76.1855L47 50.3012M47 50.3012L47 11.7501M47 50.3012L11.75 76.1855" fill="none" stroke="currentColor" stroke-width="5" stroke-linecap="round" stroke-linejoin="round"/>
		<path d="M80.0469 65.4462L82.25 76.1854L71.2344 78.3333" fill="none" stroke="currentColor" stroke-width="5" stroke-linecap="round" stroke-linejoin="round"/>
		<path d="M38.1875 20.3413L47 11.7499L55.8125 20.3413" fill="none" stroke="currentColor" stroke-width="5" stroke-linecap="round" stroke-linejoin="round"/>
		<path d="M22.7656 78.3333L11.75 76.1854L13.9531 65.4462" fill="none" stroke="currentColor" stroke-width="5" stroke-linecap="round" stroke-linejoin="round"/>	
	</symbol>

	<symbol viewBox="0 0 44 44" id="close">
		<path d="M16 16L28 27.9999" fill="none" stroke="currentColor" stroke-width="1.4" stroke-linecap="round"/>
		<path d="M16 28L28 16.0001" fill="none" stroke="currentColor" stroke-width="1.4" stroke-linecap="round"/>
	</symbol>

	<symbol viewBox="0 0 9 14" id="slider-arrow-prev">
		<path d="M7 12L2 7L7 2" fill="none" stroke="currentColor" stroke-width="1.2" stroke-linecap="round" stroke-linejoin="round"/>
	</symbol>

	<symbol viewBox="0 0 9 14" id="slider-arrow-next">
		<path d="M2 12L7 7L2 2" fill="none" stroke="currentColor" stroke-width="1.2" stroke-linecap="round" stroke-linejoin="round"/>
	</symbol>

	<symbol viewBox="0 0 20 20" id="figma-logo">
		<path d="M6.69979 17.9995C8.15018 17.9995 9.32731 16.8048 9.32731 15.3328V12.666H6.69979C5.24939 12.666 4.07227 13.8607 4.07227 15.3328C4.07227 16.8048 5.24939 17.9995 6.69979 17.9995Z" fill="#0ACF83"/>
		<path d="M4.07227 10.0007C4.07227 8.52869 5.24939 7.33398 6.69979 7.33398H9.32731V12.6675H6.69979C5.24939 12.6675 4.07227 11.4728 4.07227 10.0007Z" fill="#A259FF"/>
		<path d="M4.07227 4.66675C4.07227 3.19471 5.24939 2 6.69979 2H9.32731V7.33351H6.69979C5.24939 7.33351 4.07227 6.1388 4.07227 4.66675Z" fill="#F24E1E"/>
		<path d="M9.32812 2H11.9556C13.406 2 14.5832 3.19471 14.5832 4.66675C14.5832 6.1388 13.406 7.33351 11.9556 7.33351H9.32812V2Z" fill="#FF7262"/>
		<path d="M14.5832 10.0007C14.5832 11.4728 13.406 12.6675 11.9556 12.6675C10.5053 12.6675 9.32812 11.4728 9.32812 10.0007C9.32812 8.52869 10.5053 7.33398 11.9556 7.33398C13.406 7.33398 14.5832 8.52869 14.5832 10.0007Z" fill="#1ABCFE"/>	
	</symbol>

</svg>