<svg width="67" height="20" viewBox="0 0 67 20" fill="none" xmlns="http://www.w3.org/2000/svg">
<path d="M17.6549 0L11.0976 19.603H6.92868L0 0H2.9513L9.04621 17.4528L14.7697 0H17.6549Z" fill="white"/>
<path d="M21.4897 2.98038L18.8048 3V0H21.4897V2.98038ZM21.4848 19.603H18.8048V5.01472H21.4848V19.603Z" fill="white"/>
<path d="M25.7632 9.51361C25.9529 8.76379 26.2154 8.08675 26.5507 7.48249C26.8904 6.87823 27.2918 6.36438 27.755 5.94096C28.2182 5.51753 28.7388 5.19114 29.3167 4.96179C29.8946 4.73243 30.5144 4.61775 31.1762 4.61775C31.7761 4.61775 32.3452 4.70376 32.8834 4.87578C33.4216 5.0478 33.9179 5.29479 34.3723 5.61677C34.8311 5.93875 35.2436 6.3291 35.6097 6.78781C35.9803 7.24211 36.2935 7.75375 36.5494 8.32273C36.8053 8.8917 37.0016 9.5114 37.1383 10.1818C37.2795 10.8523 37.3501 11.5602 37.3501 12.3056C37.3501 13.051 37.2795 13.7589 37.1383 14.4293C37.0016 15.0997 36.8053 15.7216 36.5494 16.295C36.2935 16.864 35.9803 17.3778 35.6097 17.8366C35.2436 18.2909 34.8311 18.679 34.3723 19.001C33.9179 19.323 33.4216 19.57 32.8834 19.742C32.3452 19.914 31.7761 20 31.1762 20C30.5144 20 29.8946 19.8853 29.3167 19.656C28.7388 19.4266 28.2182 19.1002 27.755 18.6768C27.2918 18.249 26.8904 17.7329 26.5507 17.1286C26.2154 16.5244 25.9529 15.8473 25.7632 15.0975V19.603H23.0832V0H25.7632V9.51361ZM25.7632 12.3056C25.7632 13.1392 25.8647 13.8868 26.0676 14.5484C26.275 15.2056 26.5728 15.7635 26.961 16.2223C27.3492 16.681 27.8212 17.0338 28.3771 17.2808C28.9329 17.5234 29.5616 17.6447 30.263 17.6447C30.9776 17.6447 31.6085 17.53 32.1555 17.3007C32.7025 17.0669 33.1613 16.7251 33.5319 16.2752C33.9069 15.8209 34.1892 15.2629 34.3789 14.6013C34.573 13.9353 34.6701 13.1701 34.6701 12.3056C34.6701 11.4411 34.573 10.678 34.3789 10.0164C34.1892 9.35041 33.9091 8.79246 33.5385 8.34257C33.168 7.89268 32.707 7.55306 32.1555 7.32371C31.6085 7.08994 30.9776 6.97306 30.263 6.97306C29.5616 6.97306 28.9329 7.09435 28.3771 7.33694C27.8212 7.57953 27.3492 7.93018 26.961 8.38889C26.5728 8.8476 26.275 9.40775 26.0676 10.0694C25.8647 10.7265 25.7632 11.472 25.7632 12.3056Z" fill="white"/>
<path d="M52.1382 14.7667C51.9485 15.5827 51.653 16.3149 51.2515 16.9632C50.8545 17.6116 50.367 18.1607 49.7891 18.6106C49.2156 19.0605 48.5605 19.4046 47.8238 19.6427C47.0914 19.8809 46.2974 20 45.4415 20C44.7269 20 44.0541 19.9162 43.4233 19.7486C42.7924 19.581 42.2101 19.3406 41.6763 19.0274C41.1469 18.7099 40.6705 18.3261 40.247 17.8763C39.8279 17.422 39.4706 16.9103 39.175 16.3413C38.8838 15.768 38.661 15.1416 38.5066 14.4624C38.3522 13.7787 38.275 13.0532 38.275 12.2857C38.275 11.5183 38.3522 10.7971 38.5066 10.1223C38.661 9.44745 38.8816 8.82554 39.1684 8.25657C39.4595 7.68759 39.8125 7.17815 40.2271 6.72827C40.6418 6.27838 41.1116 5.89685 41.6366 5.58369C42.1616 5.27054 42.7373 5.03236 43.3637 4.86916C43.9902 4.70156 44.6563 4.61775 45.3621 4.61775C46.4077 4.61775 47.3517 4.79859 48.1943 5.16027C49.0369 5.51753 49.756 6.02697 50.3516 6.68857C50.9471 7.35017 51.4059 8.15071 51.728 9.09018C52.05 10.0297 52.211 11.0816 52.211 12.246C52.211 12.4136 52.2066 12.579 52.1978 12.7422C52.1889 12.9054 52.1779 13.0863 52.1647 13.2847H41.008C41.0874 13.9508 41.2462 14.5506 41.4844 15.0843C41.727 15.6136 42.0403 16.0635 42.4241 16.434C42.8123 16.8045 43.2645 17.089 43.7806 17.2874C44.3012 17.4815 44.8769 17.5785 45.5077 17.5785C46.4827 17.5785 47.2966 17.3448 47.9495 16.8772C48.6024 16.4053 49.1075 15.7018 49.4648 14.7667H52.1382ZM49.4384 10.9691C49.3501 10.334 49.1957 9.77384 48.9752 9.28866C48.7546 8.79908 48.4722 8.38889 48.1282 8.05808C47.7841 7.72287 47.3804 7.46926 46.9172 7.29724C46.4584 7.12523 45.9445 7.03922 45.3754 7.03922C44.7931 7.03922 44.2593 7.12964 43.774 7.31048C43.2887 7.4869 42.8608 7.74493 42.4902 8.08455C42.1241 8.41976 41.8197 8.83216 41.5771 9.32175C41.3344 9.80692 41.1624 10.356 41.0609 10.9691H49.4384Z" fill="white"/>
<path d="M59.3856 4.61775C60.3782 4.61775 61.2605 4.73023 62.0325 4.95517C62.8089 5.18012 63.4618 5.5021 63.9912 5.92111C64.525 6.33571 64.9286 6.84074 65.2021 7.43618C65.4801 8.02721 65.619 8.69102 65.619 9.4276H63.0052C63.0052 9.05269 62.9258 8.71307 62.767 8.40873C62.6082 8.09999 62.3744 7.83755 62.0656 7.62143C61.7612 7.40089 61.384 7.23108 60.934 7.11199C60.484 6.99291 59.9679 6.93336 59.3856 6.93336C58.8562 6.93336 58.3731 6.98188 57.9364 7.07891C57.5041 7.17595 57.1313 7.31489 56.8181 7.49572C56.5049 7.67215 56.2622 7.88607 56.0902 8.13748C55.9181 8.38448 55.8321 8.66014 55.8321 8.96448C55.8321 9.19384 55.8806 9.39673 55.9777 9.57315C56.0747 9.74517 56.2071 9.89513 56.3747 10.023C56.5424 10.151 56.7387 10.2612 56.9637 10.3538C57.1886 10.4421 57.4291 10.5192 57.6849 10.5854C57.9452 10.6516 58.2143 10.7089 58.4922 10.7574C58.7702 10.8015 59.0437 10.8456 59.3128 10.8897L60.2855 11.0419C60.6914 11.1037 61.1171 11.1764 61.5627 11.2602C62.0126 11.3396 62.456 11.4477 62.8927 11.5844C63.3295 11.7167 63.7441 11.8866 64.1368 12.0939C64.5294 12.2967 64.8757 12.5526 65.1757 12.8613C65.4757 13.1701 65.7139 13.5406 65.8903 13.9728C66.0668 14.4006 66.155 14.9101 66.155 15.5011C66.155 16.22 66.0139 16.8596 65.7315 17.4198C65.4492 17.9755 65.0323 18.4452 64.4809 18.829C63.9338 19.2127 63.2545 19.5038 62.4427 19.7023C61.631 19.9008 60.6936 20 59.6304 20C58.5231 20 57.5526 19.8919 56.7188 19.6758C55.885 19.4597 55.1902 19.1421 54.6344 18.7231C54.0785 18.3041 53.6594 17.7902 53.3771 17.1816C53.0992 16.5685 53.0974 15.5607 53.0974 14.7667H55.7112C55.7112 15.1857 55.6556 15.8628 55.8189 16.1892C55.9821 16.5112 56.2313 16.7846 56.5666 17.0096C56.9019 17.2301 57.3232 17.3977 57.8305 17.5124C58.3378 17.6271 58.9356 17.6844 59.6238 17.6844C60.2458 17.6844 60.7995 17.6381 61.2847 17.5455C61.77 17.4528 62.1803 17.3183 62.5155 17.1419C62.8508 16.961 63.1067 16.7383 63.2831 16.4737C63.4596 16.209 63.5478 15.9069 63.5478 15.5673C63.5478 15.3026 63.4949 15.0711 63.389 14.8726C63.2876 14.6697 63.1464 14.4933 62.9655 14.3433C62.7891 14.1933 62.5773 14.0654 62.3303 13.9596C62.0832 13.8493 61.8163 13.7545 61.5296 13.6751C61.2472 13.5957 60.9495 13.5273 60.6362 13.47C60.323 13.4082 60.0098 13.3509 59.6966 13.298L58.7238 13.1326C58.3533 13.0708 57.9607 13.0003 57.546 12.9209C57.1313 12.8371 56.7188 12.7334 56.3085 12.6099C55.9027 12.482 55.5123 12.3232 55.1373 12.1336C54.7667 11.9395 54.4381 11.7013 54.1513 11.419C53.869 11.1367 53.6418 10.7993 53.4697 10.4068C53.3021 10.0142 53.2183 9.55331 53.2183 9.02402C53.2183 8.3536 53.3594 7.74713 53.6418 7.20462C53.9285 6.66211 54.3366 6.19898 54.866 5.81525C55.3998 5.43153 56.0461 5.13601 56.8048 4.92871C57.568 4.72141 58.4283 4.61775 59.3856 4.61775Z" fill="white"/>
</svg>
